<svg id="Capa_1" data-name="Capa 1" xmlns="http://www.w3.org/2000/svg" viewBox="0 0 495.33 359.33"><defs><style>.cls-1{fill:#ffeaad;}</style></defs><title>saveNotes-logo</title><line class="cls-1" x1="329.49" y1="23.99" x2="329.43" y2="23.84"/><path class="cls-1" d="M49.52,298.59c0,5.15-2.92,8.51-6.43,7.54L10.24,297c-2.61-.72-4.68-4.78-4.68-9.07V117c0-4.29,2.07-9,4.68-10.43L43.09,87.87c3.51-2,6.43.52,6.43,5.67s-2.92,10.77-6.43,12.52l-24,12c-2.19,1.09-3.93,4.77-3.93,8.24V275.9c0,3.47,1.74,6.64,3.93,7.09l24,5C46.6,288.67,49.52,293.45,49.52,298.59Z"/><path class="cls-1" d="M224.69,15.64V325.41c0,8.55-8,13.56-17.47,11.27L125.93,317c-5.94-1.43-10.6-7.77-10.6-14.2S120,292,125.93,293l53.48,9.15c6.36,1.09,11.67-3,11.67-9.08V57.76c0-6.12-5.31-8.62-11.67-5.68L125.93,76.83c-5.94,2.75-10.6-.31-10.6-6.73S120,56,125.93,52.8L207.22,9.47C216.69,4.42,224.69,7.09,224.69,15.64Z"/><path class="cls-1" d="M176.13,215.83V222a10.87,10.87,0,0,1-10.84,10.72l-4.72,0a51.15,51.15,0,0,1-5.69,13.62,10.11,10.11,0,0,1,1.41,1.22l4.18,4.36c4.05,4.23,4.05,10.79,0,14.49l-4.18,3.82c-3.88,3.54-10,2.89-13.69-1.31l-3.8-4.34a10.31,10.31,0,0,1-1.06-1.44,39.17,39.17,0,0,1-11.81,4.28v4.22c0,5.14-3.75,8.79-8.27,8.18l-4.63-.63c-4.28-.58-7.66-5-7.66-9.78V253.71a27.28,27.28,0,0,0,10,2.58c17.94,1.17,34-15,34-36.28s-16-36.16-34-33.55a29.12,29.12,0,0,0-10,3.38V174.09c0-4.83,3.38-9.47,7.66-10.4l4.63-1c4.52-1,8.27,2.38,8.27,7.51v4.22a36.54,36.54,0,0,1,11.81,3.33,11.54,11.54,0,0,1,1.06-1.53l3.8-4.64c3.67-4.49,9.81-5.64,13.69-2.41l4.18,3.48c4.05,3.37,4.05,9.94,0,14.49l-4.18,4.7a11.39,11.39,0,0,1-1.41,1.33,46.92,46.92,0,0,1,5.69,13.17l4.72-.36A9.88,9.88,0,0,1,176.13,215.83Z"/><path class="cls-1" d="M70.88,195.22v-4.54c0-4.31,2.69-8.29,6.09-8.9l2.85-.52a56.84,56.84,0,0,1,3.61-11.62,4.89,4.89,0,0,1-.91-0.75l-2.63-2.73c-2.45-2.54-2.45-7.6,0-11.38l2.63-4.06c2.54-3.91,6.76-5.15,9.42-2.66l2.85,2.68a5.43,5.43,0,0,1,.82,1,49.22,49.22,0,0,1,9.77-7.52v-4c0-4.83,3.38-9.83,7.66-11.21l4.63-1.49c4.52-1.45,8.27,1.5,8.27,6.64v16.78a27.27,27.27,0,0,0-10.6.61c-16.18,4.07-28.19,21.39-28.19,39s12,31.45,28.19,30.8a29.39,29.39,0,0,0,10.6-2.48v16.78c0,5.14-3.75,9.19-8.27,9.05l-4.63-.14c-4.28-.13-7.66-4.14-7.66-9v-4A33.44,33.44,0,0,1,95.6,227a8.24,8.24,0,0,1-.82,1.21l-2.85,3.51c-2.66,3.27-6.88,3.26-9.42.09l-2.63-3.29a9.72,9.72,0,0,1,0-11.38l2.63-3.5a7.55,7.55,0,0,1,.91-1A44,44,0,0,1,79.81,202l-2.85.31C73.57,202.73,70.88,199.53,70.88,195.22Z"/><path class="cls-1" d="M96,96.16c0,3-2,6.34-4.49,7.4L22.86,132.9c-1.47.63-2.63-.73-2.63-3s1.17-4.69,2.63-5.36L91.5,92.75C94,91.61,96,93.13,96,96.16Z"/><path class="cls-1" d="M87.14,121.39c0,2.95-1.91,6-4.24,6.84l-60,21.44c-1.47.52-2.63-.91-2.63-3.2s1.17-4.6,2.63-5.18l60-23.56C85.24,116.81,87.14,118.44,87.14,121.39Z"/><path class="cls-1" d="M78.79,145.22c0,2.86-1.8,5.69-4,6.32L22.86,166.43c-1.47.42-2.63-1.1-2.63-3.39s1.17-4.52,2.63-5l51.92-16.71C77,140.62,78.79,142.35,78.79,145.22Z"/><path class="cls-1" d="M70.88,167.77c0,2.79-1.71,5.41-3.8,5.86l-44.23,9.56c-1.47.32-2.63-1.28-2.63-3.57s1.17-4.44,2.63-4.81l44.23-11.12C69.17,163.16,70.88,165,70.88,167.77Z"/><path class="cls-1" d="M63.39,189.14c0,2.71-1.62,5.14-3.6,5.43L22.86,200c-1.47.21-2.63-1.47-2.63-3.76s1.17-4.36,2.63-4.62l36.93-6.68C61.77,184.53,63.39,186.43,63.39,189.14Z"/><path class="cls-1" d="M56.28,209.42c0,2.64-1.54,4.9-3.42,5l-30,2.26c-1.47.11-2.63-1.65-2.63-3.95s1.17-4.27,2.63-4.44l30-3.32C54.74,204.81,56.28,206.77,56.28,209.42Z"/><path class="cls-1" d="M49.52,228.69c0,2.58-1.46,4.67-3.25,4.68l-23.41.12c-1.47,0-2.63-1.84-2.63-4.13s1.17-4.19,2.63-4.25l23.41-.94C48.06,224.09,49.52,226.11,49.52,228.69Z"/><path class="cls-1" d="M43.09,247c0,2.52-1.39,4.46-3.1,4.34l-17.13-1.12c-1.47-.1-2.63-2-2.63-4.32s1.17-4.11,2.63-4.06L40,242.38C41.7,242.43,43.09,244.51,43.09,247Z"/><path class="cls-1" d="M37,264.49c0,2.46-1.33,4.26-3,4L22.86,267c-1.47-.2-2.63-2.21-2.63-4.5s1.17-4,2.63-3.88L34,259.75C35.64,259.91,37,262,37,264.49Z"/><path class="cls-1" d="M345.39,203.78V322.17c0,6.54-3.79,12.86-8.57,14.15-3,.82-5.75-0.57-7.38-3.39l0-.06-0.54-1.09-1-2.07-36-72.23a0.62,0.62,0,0,0-.06-0.13,1.91,1.91,0,0,0-.27-0.55,2.25,2.25,0,0,0-1.78-1.11,2.86,2.86,0,0,0-2.66,2.93c0,0.08,0,.17,0,0.25V336c0,7.6-5.12,15.14-11.62,16.89-6.7,1.81-12.28-3.2-12.28-11.23V196.23c0-8,5.58-13.85,12.28-13,4.65,0.58,8.59,4.23,10.45,9l0.05,0.11,1.12,2.38,37,78.75a1.84,1.84,0,0,0,1.6,1.12c1.14,0,2.12-1.25,2.19-2.76,0-.07,0-0.15,0-0.22V202.17c0-6.86,4.08-11.91,9-11.3S345.39,197.24,345.39,203.78Z"/><path class="cls-1" d="M474.38,185.21v7.6c0-4.2-1.56-7.95-3.5-8.38Z"/><path class="cls-1" d="M400.81,210.62c-4.41-7.75-10.7-13.11-17.93-14-15.49-1.93-29.32,17.17-29.32,42.63v46.28c0,25.46,13.83,42.55,29.32,38.37C397,320.08,407.7,299.58,407.7,278V238.87C407.7,228.1,405.1,218.14,400.81,210.62Zm-5,69.06c0,11.25-5.65,21.52-12.9,23-7.6,1.55-14-7.05-14-19.27V239.13c0-12.22,6.43-21.76,14-21.31,3.67,0.22,6.92,2.74,9.23,6.58a28.7,28.7,0,0,1,3.67,14.55v40.73Z"/><path class="cls-1" d="M451.64,213.52c0,4.61-1.88,8.24-4.23,8.1l-6.62-.39c-1.26-.07-2.28,1.83-2.28,4.26v74.63c0,4.85-2.08,9.34-4.68,10s-4.85-2.76-4.85-7.78V225.08c0-2.52-1.11-4.61-2.49-4.69l-7.75-.46c-3-.17-5.41-4.62-5.41-9.93s2.45-9.3,5.41-8.93l28.68,3.57C449.76,204.94,451.64,208.91,451.64,213.52Z"/><path class="cls-1" d="M484.29,289.27c0,4-1.42,7.66-3.21,8.14l-21.38,5.77c-2.17.59-4-2.61-4-7.14V213.9c0-4.54,1.79-8,4-7.72l21.38,2.66c1.78,0.22,3.21,3.66,3.21,7.67s-1.42,7.19-3.21,7.09l-15.66-.92c-1-.06-1.88,1.67-1.88,3.87v15.91c0,2.2.84,3.95,1.88,3.9l9-.36c1.89-.08,3.4,3.22,3.4,7.35s-1.51,7.65-3.4,7.85l-9,.94c-1,.11-1.88,2-1.88,4.18v15.91c0,2.2.84,3.81,1.88,3.6l15.66-3.2C482.86,282.28,484.29,285.25,484.29,289.27Z"/><path class="cls-1" d="M343.12,108.26a37.52,37.52,0,0,1,2.27,12.64v35.52a27.89,27.89,0,0,1-2.27,11.41c-2.94,6.62-8.6,10.56-15.29,9.51l-52.43-8.25c-6.7-1.05-12.28-8.45-12.28-16.48s5.58-13.3,12.28-11.8l38.09,8.5c6.39,1.43,11.65-2.63,13.55-9.45a21.87,21.87,0,0,0,.79-6,26.85,26.85,0,0,0-.79-6.41c-1.9-7.86-7.16-14.77-13.55-16.83L287,102.12c-8.54-2.75-16.29-11-20.53-21a40.59,40.59,0,0,1-3.37-15.74V21.72c0-5.3,1.23-9.63,3.37-12.79,4.24-6.34,12-7.81,20.53-3.11l49.8,27.48c4.78,2.64,8.57,10,8.57,16.57s-3.79,10-8.57,7.67l-33.5-16.28c-7-3.38-13-.64-15.33,6.3A20.09,20.09,0,0,0,287,54a28.89,28.89,0,0,0,1,7.25c2.29,8.94,8.38,17,15.33,19.7l24.51,9.5C334.52,93,340.18,100,343.12,108.26Z"/><path class="cls-1" d="M375,104l0.1-.5A1.4,1.4,0,0,0,375,104Z"/><path class="cls-1" d="M407.37,176.8l0-.11-18-105.93a21.29,21.29,0,0,0-.38-2.23l0-.09c-1-4.27-3.31-8.19-6.07-9.71s-5.26-.18-6.31,3.13l0,0.07a11.09,11.09,0,0,0-.4,1.9L354,166.06a15.11,15.11,0,0,0-.45,3.75c0,6.39,3.54,12.13,7.82,12.8,3.83,0.6,6.93-3.08,7.41-8.41L374.27,146l0.53-2.74a2.14,2.14,0,0,1,2.53-1.33l10.83,3.13a4.27,4.27,0,0,1,2.42,2.91l0.4,2.33,4.87,29h0c0.43,5,3,9.21,6,9.69,3.25,0.51,5.84-3.47,5.84-8.87A16.58,16.58,0,0,0,407.37,176.8Zm-22.09-53.59-4.89-1.73a2,2,0,0,1-1-1.83,1.69,1.69,0,0,1,0-.29,1.54,1.54,0,0,1,.05-0.27l2.38-12.28a1.4,1.4,0,0,1,.1-0.49,0.64,0.64,0,0,1,.86-0.45,1.65,1.65,0,0,1,.81,1l0.08,0.49a2.33,2.33,0,0,1,.05.3v0.11l2.31,13.7a2.79,2.79,0,0,1,.05.33,1.7,1.7,0,0,1,0,.28C386.2,122.88,385.79,123.39,385.28,123.21Z"/><line class="cls-1" x1="361.32" y1="172.81" x2="361.3" y2="172.88"/><path class="cls-1" d="M375.09,103.54l-0.1.5A1.4,1.4,0,0,1,375.09,103.54Z"/><path class="cls-1" d="M447.41,102.8a14,14,0,0,1-.21,2.5l-13.42,81c-0.31,4.32-2.33,7.37-4.81,7s-4.56-4.07-5-8.54L408,85.25V85.18a18.75,18.75,0,0,1-.25-3c0-5.41,2.54-8.39,5.62-6.69,2.59,1.43,4.72,5.71,5.27,10.18v0.06l10,67.2,0,0.18a0.86,0.86,0,0,0,.44.68c0.24,0.07.43-.18,0.48-0.57l9.06-56.94V96.24c0.47-3.62,2.28-5.51,4.4-4.34C445.47,93.25,447.41,98.12,447.41,102.8Z"/><line class="cls-1" x1="428.93" y1="185.38" x2="428.92" y2="185.44"/><line class="cls-1" x1="418.93" y1="184.53" x2="418.8" y2="183.76"/><path class="cls-1" d="M481.08,194.08c0,4.08-1.47,7.15-3.3,6.86l-22-3.47c-2.24-.35-4.1-4.38-4.1-9V105c0-4.61,1.85-7.33,4.1-6.09l22,12.16c1.83,1,3.3,5.13,3.3,9.2s-1.47,6.67-3.3,5.78l-16.14-7.85c-1.07-.52-1.94.86-1.94,3.1v16.17c0,2.24.87,4.38,1.94,4.79l9.24,3.58c1.95,0.75,3.5,4.76,3.5,9s-1.56,7.1-3.5,6.47l-9.24-3c-1.07-.34-1.94,1.18-1.94,3.42v16.17c0,2.24.87,4.24,1.94,4.47l16.14,3.6C479.61,186.37,481.08,190,481.08,194.08Z"/></svg>